<svg width="37" height="44" viewBox="0 0 37 44" fill="none" xmlns="http://www.w3.org/2000/svg">
<path d="M18.534 42.3855C15.1684 38.9725 11.9318 35.6893 8.61779 32.3282C6.84361 36.2133 5.09286 40.0465 3.29524 43.9858C2.82885 43.8088 2.41167 43.6507 1.87965 43.4477C2.04605 42.9497 2.1773 42.513 2.33667 42.0905C3.69602 38.4981 5.04364 34.901 6.4358 31.3227C6.70064 30.6406 6.63267 30.204 6.10065 29.6823C4.0921 27.7091 2.13042 25.6863 0 23.5313C0.738266 22.9767 1.44606 22.4456 2.22417 21.8602C3.86242 23.5337 5.75613 25.4668 7.8139 27.5698C8.40217 26.0168 8.87091 24.7823 9.3373 23.5479C11.0412 19.0373 12.7357 14.5244 14.4606 10.0233C14.702 9.39542 14.7302 8.94932 14.2989 8.33564C12.7193 6.09334 13.1294 3.0627 15.1473 1.3019C17.1629 -0.45653 20.0925 -0.430567 22.0706 1.36091C24.0604 3.16183 24.3628 6.15235 22.8417 8.4395C22.6073 8.79354 22.4152 9.39306 22.5464 9.74947C24.7167 15.5912 26.9408 21.4094 29.1486 27.2252C31.0493 25.2685 32.936 23.3284 34.8204 21.3882C35.6852 22.3063 36.2875 22.9484 37 23.706C35.2586 25.4621 33.4798 27.3787 31.5603 29.1371C30.5642 30.0505 30.433 30.8153 30.9439 32.0592C32.4579 35.7554 33.8243 39.513 35.2985 43.3769C34.8133 43.5869 34.3751 43.7781 33.8641 44C32.0712 40.0677 30.3158 36.2228 28.5064 32.2574C25.1807 35.6374 21.923 38.9466 18.534 42.3855ZM18.527 10.4953C18.4168 10.7762 18.3793 10.8848 18.3301 10.9886C15.6044 16.9768 12.8716 22.9602 10.167 28.9577C10.0592 29.1961 10.1224 29.6752 10.2959 29.8523C13.0146 32.6516 15.7614 35.4203 18.5715 38.2621C21.4074 35.3943 24.1893 32.6044 26.9221 29.7673C27.0979 29.5832 26.9994 28.9742 26.8518 28.6462C24.2925 22.972 21.7074 17.3072 19.1246 11.6401C18.9863 11.3356 18.8176 11.0476 18.527 10.4953ZM19.7222 2.75822C18.616 2.20354 17.4465 2.36641 16.5512 3.27513C15.6559 4.18385 15.4942 5.38053 16.0637 6.52764C17.2824 5.27195 18.5176 3.99974 19.7222 2.75822ZM17.3059 7.88718C18.7402 8.46074 20.0082 8.17042 20.8355 7.08231C21.5761 6.10987 21.6183 4.96983 21.0089 4.11776C19.8019 5.34748 18.5809 6.58901 17.3059 7.88718Z" fill="#EFD270" fill-opacity="0.9"/>
</svg>
