<svg width="126" height="90" viewBox="0 0 126 90" fill="none" xmlns="http://www.w3.org/2000/svg">
<path d="M122.404 14.7749C121.735 12.0735 120.371 9.59834 118.451 7.59947C116.532 5.60059 114.123 4.14879 111.47 3.39069C101.776 1 63 1 63 1C63 1 24.2238 1 14.5298 3.61837C11.8766 4.37647 9.46847 5.82828 7.54865 7.82715C5.62883 9.82602 4.26532 12.3012 3.59581 15.0026C1.82166 24.9385 0.953827 35.0178 1.00322 45.1138C0.939981 55.2859 1.80787 65.4421 3.59581 75.4528C4.33391 78.0703 5.72798 80.4513 7.64332 82.3657C9.55867 84.2802 11.9306 85.6634 14.5298 86.3816C24.2238 89 63 89 63 89C63 89 101.776 89 111.47 86.3816C114.123 85.6235 116.532 84.1717 118.451 82.1729C120.371 80.174 121.735 77.6988 122.404 74.9974C124.165 65.1363 125.032 55.1339 124.997 45.1138C125.06 34.9418 124.192 24.7856 122.404 14.7749Z" stroke="white" stroke-width="2" stroke-linecap="round" stroke-linejoin="round"/>
<path d="M50.3188 63.727L82.7262 45.1138L50.3188 26.5006V63.727Z" stroke="white" stroke-width="2" stroke-linecap="round" stroke-linejoin="round"/>
</svg>
